<svg version="1" xmlns="http://www.w3.org/2000/svg" width="802.667" height="802.667" viewBox="0 0 602.000000 602.000000"><path d="M127.9 136.9l-2.4 1.9-.3 57.1-.2 57-4.3 3.5c-2.3 1.9-10 8.1-17.2 13.7-7.1 5.7-18.2 14.4-24.5 19.4-6.3 5-13.8 10.9-16.6 13.1-19.5 15-28.1 21.9-29.6 23.6-2.5 2.9-2.3 7.3.4 9.2 4.7 3.3 2 5.1 51.8-34.4 4.1-3.3 13.6-10.7 21-16.6 18.8-14.8 34.9-27.5 45.5-35.9 8.3-6.6 23.6-18.6 46-36.2 36.5-28.7 35.1-27.6 61.5-48.5 5.8-4.6 12.1-9.6 14.1-11.1l3.6-2.7 13.8 10.7c7.6 6 18.8 14.7 24.9 19.6 6.1 4.8 15.4 12.1 20.6 16.2 5.2 4.1 14.5 11.4 20.6 16.2 6.1 4.9 16.9 13.4 24 19 7.1 5.6 17.5 13.8 23.2 18.2 5.6 4.5 14.8 11.7 20.5 16.2 5.6 4.4 16 12.6 23.1 18.2 7.1 5.6 17.5 13.8 23.1 18.2 5.6 4.4 15 11.8 20.9 16.5 25.3 20 25.5 20.1 29.6 16 4.7-4.7 2.5-7.5-19.8-24.8-5.4-4.2-15.9-12.4-23.2-18.2-7.3-5.8-15.8-12.5-18.9-14.9-5-3.9-37-29.1-61.6-48.6-15.6-12.4-32.6-25.8-43.1-34-5.5-4.4-12.9-10.3-16.4-13-3.5-2.8-10.7-8.4-16-12.5-5.3-4.1-12.3-9.6-15.6-12.2C286.8 141 278.6 135 277 135c-2.2 0-9 5.1-56.4 42.7-16.1 12.8-31.3 24.3-31.9 24.3-.4 0-.7-14.4-.7-31.9 0-31.9 0-32-2.2-33.5-1.9-1.4-6.4-1.6-28.9-1.6-24.8 0-26.8.1-29 1.9zm47.9 43.7l.2 32.1-18.2 14.4c-10 7.9-18.5 14.5-19 14.7-1 .4-1.1-92.2-.1-93.2.4-.3 8.8-.5 18.7-.4l18.1.3.3 32.1z"/><path d="M105.7 299.1l-5.7 5.1v218.7l2.2 1.5c2 1.4 9.1 1.6 57.8 1.6h55.7l2.1-2.2c2-2.2 2.1-3.3 2.5-40.3.4-41 .3-40.4 6.3-53.1 3.5-7.6 14.7-18.8 23.1-23.2 7.4-3.9 19.7-7.2 26.7-7.2 7.9 0 18.4 2.6 26.1 6.4 12.6 6.3 20.9 15.4 27.2 29.9l2.7 6.2.6 39.8.5 39.9 2.4 1.9c2.2 1.8 4.7 1.9 58.1 1.9 52.7 0 55.8-.1 57.3-1.8 1.6-1.7 1.7-10.6 1.5-111.7l-.3-109.9-5.5-4.2-5.5-4.2-.3 109.4L441 513h-93.8l-.5-32.7c-.6-36.9-1.1-40.3-7.7-53.9-6.7-13.5-17.8-24.8-30.5-31.1-11.9-5.9-15.7-6.8-31.5-6.8-13.3 0-15.2.2-22.7 2.8-19.6 6.8-36.8 23.9-43.2 43.4-3.1 9.2-4.1 21.6-4.1 51.5V513h-94V404.1c0-60-.4-109.2-.8-109.5-.5-.3-3.4 1.7-6.5 4.5z"/></svg>