<svg version="1" xmlns="http://www.w3.org/2000/svg" width="861.333" height="861.333" viewBox="0 0 646.000000 646.000000"><path d="M143.3 164.4l-2.8 2.4-.3 57.5-.3 57.5-6.7 5.4c-3.7 3-13.4 10.8-21.7 17.3-8.2 6.5-19 15.1-24 19-4.9 3.9-15.2 12-22.8 18-7.7 6.1-14 11.8-14.3 13-.3 1.2-.4 4.1-.2 6.6.5 7.8.6 7.7 26.8-13 4.1-3.3 14.5-11.5 23-18.2 8.5-6.8 19.6-15.5 24.5-19.4 5-3.9 14.4-11.4 21-16.6 6.6-5.2 16.9-13.3 23-18.2 6-4.8 14.6-11.5 19-15 14-11.1 37.7-29.8 47-37.2 24.8-19.7 35-27.7 51.7-40.8 3.4-2.6 6.7-4.7 7.4-4.7.7 0 3.6 1.9 6.5 4.2 2.9 2.4 8.9 7.2 13.5 10.8 4.5 3.6 14.2 11.2 21.5 17 25.1 20 29.7 23.5 42.5 33.7 7.1 5.6 18.5 14.6 25.3 20 6.8 5.4 16.1 12.7 20.6 16.3 10.3 8.1 30.3 23.9 45.5 35.9 6.3 5.1 15.1 11.9 19.5 15.3 4.4 3.4 10 7.9 12.5 9.9 17.9 14.9 31.4 24.9 33.6 24.9 3 0 6.4-3.3 6.4-6.3 0-2.8-4.3-7.1-17.6-17.4-10.5-8.1-22.4-17.5-42.9-33.8-6.6-5.2-17.4-13.8-24-18.9-15.4-12.1-47.2-37.3-55-43.6-3.3-2.6-12.7-10.1-21-16.6-17.2-13.5-22.3-17.5-43-33.9-16.9-13.4-31-24.5-37.1-29.3-5.8-4.4-8.9-4.2-15.5 1.1-6.6 5.3-24.9 19.8-42.7 33.7-7.3 5.8-18.6 14.7-25 19.7-6.4 5.1-12 9.3-12.4 9.3-.5 0-.8-14.4-.8-31.9v-32l-2.6-2c-2.5-2-3.9-2.1-29-2.1h-26.3l-2.8 2.4zm48.7 43.9v32.3l-10.7 8.4c-5.9 4.7-14.2 11.3-18.5 14.7-4.3 3.5-8.1 6.3-8.3 6.3-.3 0-.5-21.2-.5-47v-47h38v32.3z"/><path d="M121.3 327.6l-5.3 4.6v221.7l2.2 1.5c2 1.4 9.1 1.6 57.8 1.6h55.7l2.1-2.3c2-2.1 2.1-3.2 2.4-40.2l.4-38 2.8-8c3.5-9.9 8.1-16.9 15.3-23.5 26-23.7 68.3-18.3 86.9 11.1 1.4 2.3 3.8 7.1 5.2 10.8l2.7 6.6.5 39.6c.5 37.2.6 39.8 2.4 41.8 1.9 2.1 2.3 2.1 58 2.1 49.2 0 56.4-.2 58.4-1.6l2.2-1.5V332l-5.7-4.5-5.8-4.5-.5 110.3-.5 110.2-47.1.3-47.2.2-.5-33.2c-.6-37.3-1-40.6-7.7-54.3-14-28.9-46.4-44.8-77.3-37.9-20.6 4.6-39.5 19.7-48.7 38.9-5.5 11.5-6.1 16.8-6.7 53.3l-.5 33.2-47.2-.2-47.1-.3-.3-110.3c-.1-60.6-.5-110.2-1-110.2-.4 0-3.1 2.1-5.9 4.6z"/></svg>