<svg version="1" xmlns="http://www.w3.org/2000/svg" width="858.667" height="858.667" viewBox="0 0 644.000000 644.000000"><path d="M144.4 173.4c-1.7.8-3.4 2.1-3.8 3.1-.3.9-.6 28.8-.6 61.9v60.3l-10.1 7.9C104.6 326.4 53 367 44.4 373.8c-4.5 3.6-5.4 4.8-5.4 7.6 0 4.1 1.5 5.6 5.9 5.6 3.8 0 2.4 1 33.6-23.6 9.9-7.8 25.9-20.5 35.5-28.1 32.7-25.7 54.3-42.7 72.4-57.1 10-7.8 25.9-20.4 35.5-28 23.5-18.5 44.5-35.1 64-50.5l16.1-12.8 16.2 12.8c29.5 23.4 45.2 35.8 58.6 46.3 7.4 5.8 20.6 16.2 29.5 23.3 8.9 7 22.3 17.5 29.7 23.3 7.4 5.8 18.2 14.3 24 19 10.3 8.3 19.5 15.6 47.9 37.7 7.9 6.1 17.1 13.4 20.5 16.2 20.4 16.8 27.1 21.5 30.6 21.5 4.4 0 6-1.5 6-5.6 0-3.6.8-2.9-44.9-38.9-11.2-8.8-27.4-21.5-36-28.3-8.6-6.8-24.3-19.1-35-27.5-10.6-8.4-23-18.2-27.5-21.8-4.5-3.6-15.3-12.1-24.1-18.9-8.8-6.8-18.7-14.7-22.1-17.5-3.3-2.7-9.4-7.5-13.4-10.5s-11.1-8.6-15.7-12.3C320.1 184.5 304.5 173 302 173c-2.7 0-18.1 11.7-82.7 62.9-5.6 4.5-10.6 8.1-11.2 8.1-.8 0-1.1-10.1-1.1-32.9 0-18.1-.3-33.7-.6-34.6-1.6-4-5.1-4.5-32.6-4.5-19.8.1-27.1.4-29.4 1.4zm49.4 47.3l.2 35.3-8.7 6.7c-4.8 3.8-13.4 10.6-19.2 15.1-5.7 4.6-11 8.6-11.8 8.9-1.1.4-1.3-8.3-1.3-49.9 0-27.8.3-50.8.7-51.2.4-.3 9.5-.5 20.2-.4l19.6.3.3 35.2z"/><path d="M119.3 347.6l-6.3 4.8V469c0 103.9.2 116.8 1.6 118.8l1.5 2.2h60.8c47.5 0 61.1-.3 61.9-1.2.6-.8 1.2-15.9 1.5-40.8.4-36.9.5-40 2.6-46.8 3.2-10.9 7.3-18.3 14.3-25.8 12.3-13.2 26.5-19.3 44.8-19.3 31.7-.1 55.8 21 61 53.4.6 3.3 1 22.2 1 42.1 0 26.6.3 36.3 1.2 37.2.9.9 16 1.2 61.9 1.2h60.8l1.5-2.2c1.4-2 1.6-14.9 1.6-118.8V352.5l-5.4-4.3c-3-2.3-5.9-4.2-6.5-4.2-.8 0-1.1 34.2-1.1 117v117H376.1l-.4-37.8c-.3-37.1-.4-37.8-2.9-45.2-3.2-9.6-5-13-10.9-21-8.6-11.8-18.9-20.1-30.9-25-23.2-9.6-49.5-7.2-69.5 6.2-16.1 10.8-26.2 25.3-31 44.2-2.4 9.6-2.5 10.9-2.5 44.2V578H126l-.2-117.6-.3-117.6-6.2 4.8z"/></svg>