<svg version="1" xmlns="http://www.w3.org/2000/svg" width="800" height="800" viewBox="0 0 600.000000 600.000000"><path d="M131 128.7c-4 1.4-4 1.5-4 64.3v60.6l-2.7 2.6c-1.6 1.4-9.1 7.5-16.9 13.4-15.8 12.3-29.4 23-48.8 38.4-7.2 5.8-17.5 13.8-22.9 17.9-8.8 6.7-9.7 7.7-9.7 10.7 0 4 2.2 6.4 6 6.4 3.1 0 3.1 0 31.5-22.5 35.5-28.1 48.7-38.5 103-81.5 10.5-8.2 24.4-19.1 30.9-24.2 6.6-5.1 14.6-11.6 18-14.3 3.3-2.8 12.7-10.2 20.7-16.5 8.1-6.3 22.6-17.8 32.4-25.5 9.7-7.7 18.3-14.4 19-14.9 1.3-1 10.1 5.2 23 15.9 2.8 2.3 11.5 9.3 19.5 15.6 27.7 21.7 68 53.5 79.4 62.7 3.3 2.6 12.8 10.1 21.2 16.7 16 12.6 44.7 35.3 71.8 56.7 33.8 26.8 37.1 29.3 39.1 30.5 4.9 3 10.5.3 10.5-5 0-2.7-3.2-5.4-38.5-33.2-4.9-3.9-15.7-12.4-24.1-19-8.4-6.6-23-18.2-32.6-25.7-9.5-7.5-24.7-19.5-33.8-26.7-9.1-7.2-23.7-18.7-32.5-25.6-8.8-6.9-23.6-18.6-33-26-9.3-7.5-25.7-20.4-36.3-28.8-10.6-8.3-21.4-16.9-24-18.9-7.6-6.1-9.5-5.6-24.3 5.9-6.8 5.4-17.3 13.6-23.3 18.3-6 4.7-14.5 11.4-19 15-14.8 12-35.5 28-36 28-.4 0-.6-15.1-.6-33.5v-33.6l-2.5-2.4-2.4-2.5-28.3.1c-15.6 0-29 .3-29.8.6zm49.8 47.2c.2 25.6-.1 34.7-1 35.8-1.1 1.3-6.6 5.8-30.5 24.5-4.7 3.7-9 6.5-9.5 6.2-1-.6-1.1-99.8-.1-100.8.4-.3 9.7-.5 20.7-.4l20.1.3.3 34.4z"/><path d="M105.6 303.7l-5.6 4.7V425c0 103.9.2 116.8 1.6 118.8l1.5 2.2h60.4c53.5 0 60.5-.2 61.9-1.6 1.4-1.3 1.6-6.1 1.6-36.2.1-19.1.5-37.7.9-41.4 2.9-22.4 15.4-40.3 34.6-49.4 9.2-4.4 16.6-5.7 30.1-5.2 9.7.4 12 .8 19.1 3.7 16.6 6.9 27.6 18.2 34.5 35.5l3.2 8.1.4 41.5c.3 36 .6 41.7 1.9 43.2 1.5 1.7 5.8 1.8 62.3 1.8h60.8l1.6-2.5c1.4-2.2 1.6-13.4 1.6-118.9V308.2l-6.2-4.6-6.3-4.7-.5 117.3-.5 117.3-50.7.3-50.8.2v-34.8c0-31.7-.2-35.6-2-42.8-7.1-27.7-26.3-47.5-54-55.5-9-2.6-27-2.6-36 0-15.9 4.6-23.2 8.8-34.4 19.9-9.3 9.3-15.8 20.8-19.2 33.9-2.3 9.2-2.4 10.8-2.4 44.4V534H113V416.5c0-68.1-.4-117.5-.9-117.5s-3.4 2.1-6.5 4.7z"/></svg>